<mxfile host="app.diagrams.net" agent="Mozilla/5.0 (Windows NT 10.0; Win64; x64) AppleWebKit/537.36 (KHTML, like Gecko) Chrome/134.0.0.0 Safari/537.36" version="26.1.1">
  <diagram name="ER Diagram" id="dy5bgZy0JGvghACp0E9j">
    <mxGraphModel dx="1050" dy="618" grid="1" gridSize="10" guides="1" tooltips="1" connect="1" arrows="1" fold="1" page="1" pageScale="1" pageWidth="827" pageHeight="1169" math="0" shadow="0">
      <root>
        <mxCell id="0" />
        <mxCell id="1" parent="0" />
        <mxCell id="zja4Fb652B_16tCy8yna-1" value="Artikel" style="swimlane" vertex="1" parent="1">
          <mxGeometry x="100" y="100" width="200" height="180" as="geometry" />
        </mxCell>
        <mxCell id="zja4Fb652B_16tCy8yna-2" value="id (PK)" vertex="1" parent="zja4Fb652B_16tCy8yna-1">
          <mxGeometry y="30" width="200" height="30" as="geometry" />
        </mxCell>
        <mxCell id="zja4Fb652B_16tCy8yna-3" value="name" vertex="1" parent="zja4Fb652B_16tCy8yna-1">
          <mxGeometry y="60" width="200" height="30" as="geometry" />
        </mxCell>
        <mxCell id="zja4Fb652B_16tCy8yna-4" value="description" vertex="1" parent="zja4Fb652B_16tCy8yna-1">
          <mxGeometry y="90" width="200" height="30" as="geometry" />
        </mxCell>
        <mxCell id="zja4Fb652B_16tCy8yna-5" value="unit" vertex="1" parent="zja4Fb652B_16tCy8yna-1">
          <mxGeometry y="120" width="200" height="30" as="geometry" />
        </mxCell>
        <mxCell id="zja4Fb652B_16tCy8yna-6" value="StockQuantity" vertex="1" parent="zja4Fb652B_16tCy8yna-1">
          <mxGeometry y="150" width="200" height="30" as="geometry" />
        </mxCell>
        <mxCell id="zja4Fb652B_16tCy8yna-7" value="User" style="swimlane" vertex="1" parent="1">
          <mxGeometry x="400" y="100" width="200" height="90" as="geometry" />
        </mxCell>
        <mxCell id="zja4Fb652B_16tCy8yna-8" value="Email (PK)" vertex="1" parent="zja4Fb652B_16tCy8yna-7">
          <mxGeometry y="30" width="200" height="30" as="geometry" />
        </mxCell>
        <mxCell id="zja4Fb652B_16tCy8yna-9" value="PasswordHash" vertex="1" parent="zja4Fb652B_16tCy8yna-7">
          <mxGeometry y="60" width="200" height="30" as="geometry" />
        </mxCell>
      </root>
    </mxGraphModel>
  </diagram>
</mxfile>
